<?xml version="1.0" encoding="utf-8"?>
<!-- Generator: Adobe Illustrator 21.1.0, SVG Export Plug-In . SVG Version: 6.00 Build 0)  -->
<svg version="1.1" id="Layer_1" xmlns="http://www.w3.org/2000/svg" xmlns:xlink="http://www.w3.org/1999/xlink" x="0px" y="0px"
	 viewBox="0 0 19 20.7" style="enable-background:new 0 0 19 20.7;" xml:space="preserve">
<style type="text/css">
	.st0{opacity:0.85;}
	.st1{fill:#964651;stroke:#E5E5E5;stroke-width:0.1;stroke-linecap:round;stroke-linejoin:round;stroke-miterlimit:10;}
</style>
<g transform="translate(-510 -2000)" class="st0">
	<path class="st1" d="M526.5,2008l-2.5,4h2c-0.2,3.2-2.8,5.7-6,6v-12c1.1-0.2,2-1.2,2-2.4c0-1.4-1.1-2.5-2.5-2.5s-2.5,1.1-2.5,2.5
		c0,1.2,0.9,2.2,2,2.4v12c-3.2-0.3-5.7-2.8-5.9-6h1.9l-2.5-4l-2.5,4h2.1c0.3,3.9,3.5,7,7.5,7s7.2-3.1,7.5-7h2L526.5,2008z
		 M518,2003.5c0-0.8,0.7-1.5,1.5-1.5s1.5,0.7,1.5,1.5c0,0.8-0.7,1.5-1.5,1.5S518,2004.3,518,2003.5z"/>
</g>
</svg>
