<?xml version="1.0" standalone="no"?>
<!DOCTYPE svg PUBLIC "-//W3C//DTD SVG 20010904//EN"
 "http://www.w3.org/TR/2001/REC-SVG-20010904/DTD/svg10.dtd">
<svg version="1.0" xmlns="http://www.w3.org/2000/svg"
 width="672.000000pt" height="672.000000pt" viewBox="0 0 672.000000 672.000000"
 preserveAspectRatio="xMidYMid meet">
<metadata>
Created by potrace 1.11, written by Peter Selinger 2001-2013
</metadata>
<g transform="translate(0.000000,672.000000) scale(0.100000,-0.100000)"
fill="#000000" stroke="none">
<path d="M3225 6368 c-156 -35 -255 -77 -355 -151 -322 -239 -425 -677 -242
-1030 100 -194 299 -361 488 -409 27 -6 54 -15 60 -20 14 -10 13 -3864 -1
-3862 -6 1 -32 5 -60 8 -27 4 -59 9 -70 10 -11 2 -38 7 -60 10 -22 4 -47 9
-55 12 -8 3 -26 8 -40 10 -33 7 -222 64 -235 72 -5 4 -12 7 -15 7 -27 2 -236
101 -325 155 -27 17 -58 33 -67 36 -10 4 -18 10 -18 15 0 6 -8 13 -18 17 -27
10 -152 104 -152 114 0 4 -4 8 -10 8 -18 0 -184 158 -250 239 -19 24 -40 48
-45 54 -43 50 -85 106 -85 116 0 6 -4 11 -9 11 -5 0 -13 9 -16 20 -3 11 -13
26 -20 34 -8 7 -27 38 -43 67 -16 30 -38 70 -49 90 -17 30 -87 186 -113 254
-43 110 -95 335 -105 455 -3 30 -7 65 -10 77 l-5 22 247 0 c414 0 375 -2 367
24 -4 12 -24 48 -45 79 -22 31 -39 61 -39 67 0 5 -3 11 -8 13 -6 2 -56 80
-107 166 -6 9 -27 43 -48 75 -20 31 -37 62 -37 67 0 6 -4 10 -10 10 -5 0 -10
5 -10 12 0 6 -11 26 -25 44 -14 18 -29 41 -33 51 -4 10 -29 50 -55 90 -26 39
-47 76 -47 81 0 6 -3 12 -8 14 -4 1 -23 28 -42 58 -18 30 -48 78 -66 105 -17
28 -69 111 -115 185 -118 191 -123 197 -141 179 -8 -8 -17 -19 -19 -25 -5 -11
-158 -258 -198 -318 -14 -21 -30 -47 -36 -57 -5 -11 -80 -130 -165 -266 -85
-135 -157 -251 -159 -257 -2 -5 -8 -15 -13 -21 -43 -52 -208 -332 -208 -353 0
-19 6 -22 38 -22 20 -1 169 -1 329 -1 164 0 295 -4 298 -9 3 -5 8 -31 10 -57
5 -67 14 -126 32 -213 8 -41 17 -84 19 -96 6 -31 63 -226 73 -249 5 -11 24
-58 42 -105 29 -76 120 -264 152 -315 114 -182 177 -271 267 -378 80 -96 266
-269 370 -347 18 -14 39 -31 46 -38 7 -6 16 -12 21 -12 4 -1 24 -14 43 -30 19
-17 40 -30 46 -30 7 0 14 -3 16 -7 13 -29 312 -179 474 -238 117 -43 317 -97
403 -110 20 -3 47 -7 60 -10 129 -25 429 -35 586 -21 392 37 742 151 1067 349
59 36 113 70 120 76 7 6 56 43 108 82 128 97 347 319 451 459 230 308 380 639
454 1003 23 114 37 213 38 257 0 37 12 39 295 39 152 0 285 0 295 0 14 1 17
10 17 49 0 50 5 41 -172 310 -26 41 -48 76 -48 78 0 3 -5 10 -11 17 -15 17
-229 347 -229 353 0 3 -6 12 -12 19 -27 30 -38 44 -38 50 0 4 -155 245 -209
325 -6 8 -27 41 -48 73 -21 31 -42 56 -48 54 -8 -3 -140 -203 -162 -247 -5 -8
-20 -33 -34 -55 -15 -22 -75 -119 -135 -215 -60 -96 -117 -189 -129 -207 -34
-52 -107 -170 -205 -328 -51 -82 -100 -158 -108 -167 -8 -10 -11 -18 -6 -18 5
0 4 -4 -2 -8 -15 -9 -47 -72 -41 -79 3 -2 147 -5 320 -5 339 1 331 2 322 -50
-3 -13 -7 -44 -9 -69 -3 -24 -5 -44 -6 -44 -2 0 -4 -15 -14 -82 -3 -23 -10
-53 -16 -67 -5 -15 -8 -26 -5 -26 2 0 -2 -18 -10 -40 -8 -22 -15 -44 -16 -48
-14 -61 -68 -202 -119 -307 -54 -110 -167 -296 -217 -356 -12 -13 -40 -46 -64
-74 -250 -295 -580 -519 -944 -642 -108 -36 -280 -80 -348 -89 -41 -5 -70 -9
-114 -18 -13 -3 -24 -2 -24 2 -5 22 -4 3862 1 3863 60 8 174 54 255 102 74 44
189 152 233 221 15 23 30 43 33 46 14 11 68 129 87 191 18 58 36 174 36 234 0
99 -30 237 -71 332 -9 21 -17 40 -18 43 -1 6 -25 45 -64 104 -41 62 -141 158
-217 208 -67 44 -200 103 -253 113 -14 3 -37 7 -51 11 -42 10 -252 11 -295 2z
m265 -335 c30 -8 75 -27 100 -41 97 -55 205 -191 226 -282 11 -49 11 -50 14
-52 7 -8 4 -120 -3 -158 -20 -96 -79 -196 -162 -272 -36 -34 -157 -95 -205
-104 -44 -9 -147 -9 -180 -1 -156 38 -265 123 -334 262 -72 146 -67 298 16
434 28 46 128 151 144 151 6 0 17 7 24 15 16 19 114 56 165 62 22 3 41 6 43 8
6 6 102 -8 152 -22z"/>
</g>
</svg>
